<svg xmlns="http://www.w3.org/2000/svg" viewBox="0 0 186 188.22"><title>Asset 1</title><g id="Layer_2" data-name="Layer 2"><g id="Layer_1-2" data-name="Layer 1"><rect x="81" y="83.22" width="10" height="10"/><rect x="100" y="83.22" width="10" height="10"/><rect x="119" y="83.22" width="10" height="10"/><rect x="138" y="83.22" width="10" height="10"/><rect x="157" y="83.22" width="10" height="10"/><rect x="176" y="83.22" width="10" height="10"/><rect x="100" y="178.22" width="10" height="10"/><rect x="119" y="178.22" width="10" height="10"/><rect x="138" y="178.22" width="10" height="10"/><rect x="157" y="178.22" width="10" height="10"/><rect x="176" y="178.22" width="10" height="10"/><rect x="81" y="102.22" width="10" height="10"/><rect x="81" y="121.22" width="10" height="10"/><rect x="81" y="140.22" width="10" height="10"/><rect x="81" y="159.22" width="10" height="10"/><rect x="81" y="178.22" width="10" height="10"/><rect x="176" y="102.22" width="10" height="10"/><rect x="176" y="121.22" width="10" height="10"/><rect x="176" y="140.22" width="10" height="10"/><rect x="176" y="159.22" width="10" height="10"/><path d="M173.21,33.55a2.61,2.61,0,0,0-1.73,1l-9.31,9.67L124.72,7.26A26,26,0,0,0,88,8a25.42,25.42,0,0,0-7,21.58l3-3.33h0v.24a15.68,15.68,0,0,1,11.42-4.74,15.85,15.85,0,0,1,11,4.49s32,31.73,37.44,37l-11.4,11.94c-1.6,1.66-1,3.1,1.23,3.1h.07l37.63-.54a4.22,4.22,0,0,0,4.13-4.33l-1-37.64C174.49,34.3,174,33.55,173.21,33.55Z"/><path d="M49,51.22h74.32a55.85,55.85,0,0,1-8.1-8H105v-9.9l-2.66-2.63-.11-.11A9.79,9.79,0,0,0,97,28V43.22H41v56H8v-88H78.22a27.84,27.84,0,0,1,5.45-7.63c.12-.13.25-.37.37-.37H0v104H41v41H81v-8H49Z"/></g></g></svg>