<svg xmlns="http://www.w3.org/2000/svg" viewBox="0 0 193.42 185"><title>Asset 1</title><g id="Layer_2" data-name="Layer 2"><g id="Layer_1-2" data-name="Layer 1"><rect width="10" height="9"/><rect x="19" width="10" height="9"/><rect x="38" width="10" height="9"/><rect x="57" width="10" height="9"/><rect x="76" width="10" height="9"/><rect x="95" width="10" height="9"/><rect x="19" y="95" width="10" height="9"/><rect y="19" width="10" height="9"/><rect y="38" width="10" height="9"/><rect y="57" width="10" height="9"/><rect y="76" width="10" height="9"/><rect y="95" width="10" height="9"/><rect x="95" y="19" width="10" height="9"/><path d="M120.68,48h8.52l-4.14-4.21Z"/><path d="M177,177H89V88h76.54a9.77,9.77,0,0,0-2.69-6l-.43-.43L160.86,80H145V64l-8-8.09V80H81v57H49V48h55.65c-.06-.25-.1-1-.15-1h.5V38H95v2H41V95H38v9h3v41H81v40H185V104.24a31.67,31.67,0,0,1-8,3.78Z"/><path d="M186.16,59.51,144.2,17l9.68-9.31c1.68-1.62,1.15-3-1.18-3.05l-37.62-1H115a4.18,4.18,0,0,0-4.18,4.13l-.45,37.63c0,1.44.49,2.21,1.28,2.21a2.7,2.7,0,0,0,1.72-.92l11.84-11.4c5.23,5.44,41.93,42.45,42,42.47a15.71,15.71,0,0,1-.43,22.29V100l-3.08,3.08a26.39,26.39,0,0,0,3.84.34,25.9,25.9,0,0,0,18.69-43.91Z"/><polygon points="166.71 100 166.71 100 166.71 100 166.71 100"/></g></g></svg>