<svg id="Capa_1" data-name="Capa 1" xmlns="http://www.w3.org/2000/svg" viewBox="0 0 512 448"><title>layers</title><path d="M506.28,161.22,261,33.22a10.65,10.65,0,0,0-9.88,0L5.74,161.22a10.65,10.65,0,0,0,0,18.9l245.33,128a10.65,10.65,0,0,0,9.86,0l245.33-128a10.66,10.66,0,0,0,0-18.9ZM256,286.66l-222.27-116L256,54.68l222.27,116Z" transform="translate(0 -32)"/><path d="M506.28,246.53l-35.67-18.6a10.67,10.67,0,1,0-9.87,18.92L478.27,256,256,372,33.73,256l17.55-9.13A10.67,10.67,0,1,0,41.41,228L5.74,246.55a10.65,10.65,0,0,0,0,18.9l245.33,128a10.57,10.57,0,0,0,9.86,0l245.33-128a10.67,10.67,0,0,0,0-18.92Z" transform="translate(0 -32)"/><path d="M506.28,331.86l-35.67-18.6a10.67,10.67,0,1,0-9.87,18.92l17.53,9.15L256,457.32l-222.27-116,17.55-9.13a10.67,10.67,0,1,0-9.87-18.92L5.74,331.88a10.65,10.65,0,0,0,0,18.9l245.33,128a10.57,10.57,0,0,0,9.86,0l245.33-128a10.67,10.67,0,0,0,0-18.92Z" transform="translate(0 -32)"/></svg>