<svg xmlns="http://www.w3.org/2000/svg" viewBox="0 0 507.99 508"><title>Asset 2</title><g id="Layer_2" data-name="Layer 2"><g id="Capa_1" data-name="Capa 1"><path d="M315.3,414.6H73.7a14.1,14.1,0,0,0,0,28.2H315.3a14.1,14.1,0,0,0,0-28.2Z"/><path d="M181,327.3H73.7a14.1,14.1,0,0,0,0,28.2H181a14.1,14.1,0,1,0,0-28.2Z"/><path d="M181,239.9H73.7a14.1,14.1,0,0,0,0,28.2H181a14.1,14.1,0,1,0,0-28.2Z"/><path d="M275.1,152.6H73.7a14.1,14.1,0,0,0,0,28.2H275.1a14.1,14.1,0,1,0,0-28.2Z"/><path d="M315.3,65.2H159.9a14.1,14.1,0,1,0,0,28.2H315.3a14.1,14.1,0,1,0,0-28.2Z"/><path d="M494.1,70.1c-17.8-17.8-50.2-17-67.1,0l-38.1,38.1V40.8A40.84,40.84,0,0,0,348.1,0H114.7A40.38,40.38,0,0,0,85.9,11.9l-74,73.9A40.55,40.55,0,0,0,0,114.6V467.2A40.84,40.84,0,0,0,40.8,508H348.2A40.84,40.84,0,0,0,389,467.2V242.3L494.2,137.1A47.47,47.47,0,0,0,494.1,70.1ZM89.5,48.2V89.5H48.2Zm271.3,419h-.1a12.5,12.5,0,0,1-12.5,12.5H40.8a12.5,12.5,0,0,1-12.5-12.5V117.7h75.4a14.08,14.08,0,0,0,14.1-14.1V28.2H348.3a12.5,12.5,0,0,1,12.5,12.5v95.6L212,285.1a14.15,14.15,0,0,0-4.1,10v47.1A14.08,14.08,0,0,0,222,356.3h47.2a14.5,14.5,0,0,0,10-4.1l81.6-81.6Zm113.4-350L263.3,328H236.1V300.8L447,90a19.63,19.63,0,0,1,27.2,0A19.25,19.25,0,0,1,474.2,117.2Z"/></g></g></svg>